<svg width="62" height="22" viewBox="0 0 62 22" fill="none" xmlns="http://www.w3.org/2000/svg">
<g clip-path="url(#clip0_505_3054)">
<path fill-rule="evenodd" clip-rule="evenodd" d="M9.03279 1.49023H52.9687C56.8555 1.49023 60.035 5.76915 60.035 10.9993C60.035 16.2294 56.8555 20.5083 52.9687 20.5083H9.03279C5.14592 20.5083 1.96643 16.2294 1.96643 10.9993C1.96643 5.76915 5.14592 1.49023 9.03279 1.49023Z" fill="white"/>
<path d="M52.9695 2.98099H9.03365V-0.000902053H52.9695V2.98099ZM61.396 10.9996H58.6758L58.6674 10.5739L58.6432 10.1546L58.6043 9.74149L58.5497 9.33578L58.4813 8.93742L58.3983 8.54747L58.3016 8.16593L58.1923 7.79385L58.0704 7.43228L57.9358 7.08122L57.7897 6.74068L57.6331 6.41169L57.466 6.09532L57.2884 5.79156L57.1013 5.50146L56.9058 5.22503L56.7008 4.96226L56.4885 4.71526L56.2688 4.48297L56.0429 4.26645L55.8106 4.0657L55.573 3.88176L55.3302 3.71359L55.0832 3.56223L54.832 3.4277L54.5766 3.31103L54.318 3.21118L54.0553 3.12919L53.7894 3.06508L53.5203 3.01883L53.247 2.99045L52.9695 2.98099V-0.000902053L53.4162 0.014864L53.8577 0.0600602L54.2939 0.134686L54.7217 0.238742L55.141 0.370127L55.552 0.527788L55.9525 0.710674L56.3424 0.917735L56.7208 1.14897L57.0876 1.40228L57.4418 1.67766L57.7834 1.97301L58.1114 2.28833L58.4267 2.62152L58.7283 2.97258L59.0153 3.34151L59.2886 3.7262L59.5471 4.12666L59.7899 4.54183L60.017 4.97172L60.2282 5.41527L60.4237 5.87144L60.6024 6.34022L60.7643 6.82056L60.9093 7.31141L61.0354 7.81277L61.1437 8.32359L61.233 8.84387L61.3035 9.37256L61.355 9.90861L61.3855 10.452L61.396 11.0007V10.9996ZM60.0359 10.9996H61.396H60.0359ZM52.9695 22.0001V19.0183L53.247 19.0088L53.5203 18.9804L53.7894 18.9342L54.0553 18.8701L54.318 18.7881L54.5766 18.6882L54.832 18.5715L55.0832 18.437L55.3302 18.2857L55.573 18.1175L55.8106 17.9335L56.0429 17.7328L56.2688 17.5163L56.4885 17.284L56.7008 17.0359L56.9058 16.7732L57.1013 16.4967L57.2884 16.2066L57.466 15.9029L57.6331 15.5865L57.7897 15.2575L57.9358 14.917L58.0704 14.5659L58.1923 14.2043L58.3016 13.8323L58.3983 13.4507L58.4813 13.0608L58.5497 12.6624L58.6043 12.2567L58.6432 11.8436L58.6674 11.4243L58.6758 10.9986H61.396L61.3855 11.5472L61.355 12.0906L61.3035 12.6267L61.233 13.1554L61.1437 13.6757L61.0354 14.1865L60.9093 14.6878L60.7643 15.1787L60.6024 15.659L60.4237 16.1278L60.2282 16.584L60.017 17.0275L59.7899 17.4574L59.5471 17.8726L59.2886 18.273L59.0153 18.6577L58.7283 19.0256L58.4267 19.3767L58.1114 19.7109L57.7834 20.0262L57.4418 20.3216L57.0876 20.597L56.7208 20.8503L56.3424 21.0815L55.9525 21.2886L55.552 21.4715L55.141 21.6291L54.7217 21.7605L54.2939 21.8646L53.8577 21.9392L53.4162 21.9844L52.9695 22.0001ZM9.03365 19.0183H52.9695V22.0001H9.03365V19.0183ZM0.606154 10.9996H3.32633L3.33474 11.4253L3.35891 11.8447L3.3978 12.2578L3.45246 12.6635L3.52078 13.0618L3.60381 13.4518L3.70051 13.8333L3.80982 14.2054L3.93175 14.568L4.06628 14.9191L4.21238 15.2596L4.37004 15.5886L4.53716 15.905L4.71479 16.2087L4.90189 16.4988L5.09738 16.7753L5.30234 17.038L5.51466 17.2861L5.73433 17.5184L5.96031 17.7349L6.1926 17.9356L6.43014 18.1196L6.67294 18.2878L6.91994 18.4391L7.17115 18.5726L7.42656 18.6893L7.68512 18.7891L7.94789 18.8711L8.21381 18.9352L8.48289 18.9815L8.75617 19.0098L9.03365 19.0193V22.0012L8.58695 21.9854L8.14549 21.9402L7.7093 21.8656L7.28151 21.7616L6.86213 21.6302L6.45117 21.4725L6.05071 21.2896L5.66076 21.0815L5.28237 20.8503L4.91555 20.597L4.56134 20.3216L4.21974 20.0262L3.89075 19.7109L3.57543 19.3767L3.27377 19.0256L2.98683 18.6577L2.71355 18.273L2.45499 17.8726L2.21219 17.4574L1.98516 17.0275L1.77389 16.585L1.5784 16.1289L1.39971 15.6601L1.23785 15.1797L1.0928 14.6889L0.96562 14.1875L0.85736 13.6767L0.768019 13.1564L0.697597 12.6277L0.646094 12.0917L0.615613 11.5483L0.605103 10.9996H0.606154ZM1.96624 10.9996H0.606154H1.96624ZM9.0326 -0.000902053V2.98099L8.75512 2.99045L8.48184 3.01883L8.21276 3.06508L7.94684 3.12919L7.68407 3.21118L7.42551 3.31103L7.1701 3.4277L6.91889 3.56118L6.67189 3.71254L6.42909 3.88071L6.19155 4.06465L5.95926 4.2654L5.73328 4.48192L5.51361 4.71421L5.30129 4.96121L5.09633 5.22398L4.90083 5.50041L4.71374 5.79051L4.53611 6.09427L4.36899 6.41064L4.21133 6.73963L4.06523 7.08017L3.93069 7.43123L3.80877 7.7928L3.69946 8.16488L3.60276 8.54642L3.51973 8.93637L3.45141 9.33472L3.39675 9.74044L3.35786 10.1535L3.33369 10.5729L3.32528 10.9986H0.605103L0.615613 10.4499L0.646094 9.90651L0.697597 9.37046L0.768019 8.84177L0.85736 8.32149L0.96562 7.81067L1.0928 7.30931L1.23785 6.81846L1.39971 6.33917L1.5784 5.87039L1.77389 5.41422L1.98516 4.97172L2.21219 4.54183L2.45499 4.12666L2.71355 3.7262L2.98683 3.34151L3.27377 2.97258L3.57543 2.62152L3.89075 2.28833L4.21974 1.97301L4.56134 1.67766L4.91555 1.40228L5.28237 1.14897L5.66076 0.917735L6.05071 0.709623L6.45117 0.526736L6.86213 0.369075L7.28151 0.237691L7.7093 0.133635L8.14549 0.0590091L8.58695 0.013813L9.03365 -0.00195312L9.0326 -0.000902053Z" fill="white"/>
<path fill-rule="evenodd" clip-rule="evenodd" d="M9.03279 1.49048H52.9687C56.8555 1.49048 60.035 5.76939 60.035 10.9995C60.035 16.2297 56.8555 20.5086 52.9687 20.5086H9.03279C5.14592 20.5086 1.96643 16.2297 1.96643 10.9995C1.96643 5.76939 5.14592 1.49048 9.03279 1.49048Z" fill="white"/>
<path d="M52.9699 1.99254H9.03403V0.98877H52.9699V1.99254ZM60.4945 11.0002H59.579L59.5706 10.5336L59.5444 10.0732L59.5013 9.61912L59.4414 9.17242L59.3657 8.73412L59.2742 8.30423L59.1681 7.88275L59.0472 7.47178L58.9116 7.07027L58.7624 6.68033L58.6005 6.30194L58.425 5.93512L58.2379 5.5809L58.0382 5.24036L57.828 4.91347L57.6062 4.60131L57.3739 4.30385L57.1321 4.02216L56.8809 3.75624L56.6213 3.50714L56.3533 3.27485L56.0769 3.06043L55.7931 2.86388L55.5019 2.68625L55.2045 2.52754L54.9007 2.3888L54.5917 2.27003L54.2774 2.17123L53.9579 2.09345L53.6331 2.03774L53.3041 2.00411L52.9699 1.99254V0.98877L53.3609 1.00243L53.7466 1.04237L54.1271 1.10754L54.5013 1.19793L54.8692 1.3125L55.2297 1.45124L55.5818 1.61206L55.9255 1.79494L56.2608 1.9999L56.5866 2.22483L56.902 2.46973L57.2068 2.73355L57.5011 3.01629L57.7838 3.31584L58.056 3.63327L58.3157 3.96646L58.5627 4.31541L58.797 4.67908L59.0188 5.05747L59.2259 5.44952L59.4193 5.85523L59.598 6.27251L59.7619 6.7024L59.9101 7.1428L60.0426 7.59476L60.1592 8.05618L60.2591 8.52706L60.3421 9.00635L60.4073 9.49405L60.4546 9.9891L60.483 10.4915L60.4924 11.0002H60.4945ZM60.0363 11.0002H60.4945H60.0363ZM52.9699 21.0117V20.0079L53.3041 19.9964L53.6331 19.9627L53.9579 19.907L54.2774 19.8292L54.5917 19.7304L54.9007 19.6117L55.2045 19.4729L55.5019 19.3142L55.7931 19.1366L56.0769 18.94L56.3533 18.7256L56.6213 18.4933L56.8809 18.2442L57.1321 17.9783L57.3739 17.6966L57.6062 17.3992L57.828 17.087L58.0382 16.7601L58.2379 16.4196L58.425 16.0654L58.6005 15.6985L58.7624 15.3201L58.9116 14.9302L59.0472 14.5287L59.1681 14.1177L59.2742 13.6962L59.3657 13.2663L59.4414 12.828L59.5013 12.3813L59.5444 11.9273L59.5706 11.4669L59.579 11.0002H60.4945L60.4851 11.509L60.4567 12.0114L60.4094 12.5064L60.3442 12.9941L60.2612 13.4734L60.1613 13.9443L60.0447 14.4057L59.9122 14.8577L59.763 15.2981L59.599 15.728L59.4203 16.1452L59.2269 16.5509L59.0199 16.943L58.7981 17.3214L58.5637 17.6851L58.3167 18.034L58.0571 18.3672L57.7859 18.6846L57.5021 18.9842L57.2078 19.2669L56.903 19.5307L56.5877 19.7756L56.2619 20.0006L55.9266 20.2055L55.5829 20.3884L55.2308 20.5492L54.8702 20.688L54.5024 20.8025L54.1282 20.8929L53.7477 20.9581L53.362 20.998L52.971 21.0117H52.9699ZM9.03403 20.0079H52.9699V21.0117H9.03403V20.0079ZM1.5094 11.0002H2.42488L2.43329 11.4669L2.45957 11.9273L2.50266 12.3813L2.56257 12.828L2.63825 13.2663L2.72969 13.6962L2.83585 14.1167L2.95673 14.5276L3.09231 14.9291L3.24157 15.3191L3.40343 15.6975L3.57896 16.0643L3.76605 16.4185L3.96576 16.7591L4.17597 17.0859L4.39775 17.3981L4.63003 17.6956L4.87178 17.9773L5.12299 18.2432L5.3826 18.4923L5.65062 18.7246L5.92706 18.939L6.21085 19.1355L6.50199 19.3132L6.79945 19.4719L7.10321 19.6106L7.41222 19.7294L7.72649 19.8282L8.04602 19.906L8.3708 19.9617L8.69979 19.9953L9.03403 20.0069V21.0106L8.64303 20.997L8.25728 20.957L7.8768 20.8919L7.50261 20.8015L7.13474 20.6869L6.77422 20.5482L6.42211 20.3874L6.07841 20.2045L5.74312 19.9995L5.41729 19.7746L5.10196 19.5297L4.79715 19.2659L4.50285 18.9831L4.21906 18.6836L3.94789 18.3661L3.68827 18.033L3.44127 17.684L3.20688 17.3203L2.9851 16.9419L2.77804 16.5499L2.58465 16.1452L2.40596 15.728L2.242 15.2981L2.0938 14.8577L1.96136 14.4068L1.84469 13.9453L1.74484 13.4745L1.6618 12.9952L1.59664 12.5075L1.54934 12.0124L1.52096 11.51L1.5115 11.0013L1.5094 11.0002ZM1.96767 11.0002H1.5094H1.96767ZM9.03403 0.98877V1.99254L8.69979 2.00411L8.3708 2.03774L8.04602 2.09345L7.72649 2.17123L7.41222 2.27003L7.10321 2.3888L6.79945 2.52754L6.50199 2.68625L6.21085 2.86388L5.92706 3.06043L5.65062 3.27485L5.3826 3.50714L5.12299 3.75624L4.87178 4.02216L4.63003 4.30385L4.39775 4.60131L4.17597 4.91347L3.96576 5.24036L3.76605 5.5809L3.57896 5.93512L3.40343 6.30194L3.24157 6.68033L3.09231 7.07027L2.95673 7.47178L2.83585 7.88275L2.72969 8.30318L2.63825 8.73307L2.56257 9.17137L2.50266 9.61807L2.45957 10.0721L2.43329 10.5325L2.42488 10.9992H1.5094L1.51886 10.4905L1.54724 9.98805L1.59454 9.493L1.6597 9.0053L1.74274 8.52601L1.84259 8.05513L1.95926 7.59371L2.09274 7.1428L2.24095 6.7024L2.40491 6.27251L2.5836 5.85523L2.77699 5.45057L2.98405 5.05852L3.20583 4.68014L3.44022 4.31646L3.68722 3.96751L3.94684 3.63432L4.21906 3.31689L4.5018 3.01734L4.7961 2.7346L5.10091 2.47078L5.41624 2.22588L5.74207 2.00095L6.07736 1.79599L6.42106 1.61311L6.77317 1.45229L7.13369 1.31355L7.50156 1.19898L7.87575 1.10859L8.25623 1.04343L8.64198 1.00348L9.03298 0.989821L9.03403 0.98877Z" fill="#008F4F"/>
<path fill-rule="evenodd" clip-rule="evenodd" d="M7.92775 1.49146H29.4159C33.0915 4.19061 35.4963 15.8659 29.3192 20.5096H7.99291C4.44239 19.4322 1.86096 16.2306 1.86096 11.0005C2.14896 5.77037 4.41507 2.46895 7.92775 1.49146Z" fill="#008F4F"/>
<path d="M7.09729 5.94775H10.0109L13.8 11.5268V5.94775H16.7493V16.0517H13.8L10.0329 10.5031V16.0517H7.09729V5.94775ZM19.296 5.94775H24.4894C25.6214 5.94775 26.4675 6.21578 27.0319 6.75393C27.5942 7.29208 27.8759 8.05936 27.8759 9.05472C27.8759 10.0753 27.5669 10.8752 26.9541 11.4491C26.3393 12.024 25.4007 12.312 24.1415 12.312H22.4293V16.0517H19.296V5.94775ZM22.4293 10.2656H23.1987C23.8062 10.2656 24.2319 10.1594 24.4757 9.95024C24.7206 9.74107 24.8425 9.472 24.8425 9.14512C24.8425 8.82769 24.7353 8.55967 24.523 8.33894C24.3107 8.11822 23.9113 8.0068 23.3237 8.0068H22.4303V10.2645L22.4293 10.2656Z" fill="white"/>
<path d="M41.7808 14.3869H38.2429L37.7352 16.0518H34.5483L38.3511 5.94788H41.7682L45.5552 16.0518H42.2863L41.7808 14.3869ZM41.1196 12.1997L40.0171 8.5682L38.9092 12.1997H41.1196ZM44.7742 5.94893H48.0357L50.3123 13.2213L52.5564 5.94893H55.7243L51.973 16.0529H48.5907L44.7742 5.94893Z" fill="#373435"/>
</g>
<defs>
<clipPath id="clip0_505_3054">
<rect width="60.7898" height="22" fill="white" transform="translate(0.605103)"/>
</clipPath>
</defs>
</svg>
