<svg width="13" height="13" viewBox="0 0 13 13" fill="none" xmlns="http://www.w3.org/2000/svg">
<g id="BugFilled" clip-path="url(#clip0_204_6926)">
<path id="Vector" d="M3.71408 3.39286H9.28551C9.34443 3.39286 9.39265 3.34464 9.39265 3.28571C9.39265 2.75 9.27479 2.25848 9.04577 1.83795C8.81811 1.41877 8.47388 1.07453 8.0547 0.846875C7.63417 0.617857 7.14265 0.5 6.60693 0.5H6.39265C5.85693 0.5 5.36542 0.617857 4.94488 0.846875C4.5257 1.07453 4.18147 1.41877 3.95381 1.83795C3.72479 2.25848 3.60693 2.75 3.60693 3.28571C3.60693 3.34464 3.65515 3.39286 3.71408 3.39286Z" fill="#FF2F62"/>
<path id="Vector_2" d="M12.2321 6.50001H10.2499V5.16072C11.2785 5.16072 12.1115 4.32769 12.1115 3.29911C12.1115 3.24019 12.0633 3.19197 12.0044 3.19197H11.2008C11.1419 3.19197 11.0937 3.24019 11.0937 3.29911C11.0937 3.52289 11.0048 3.7375 10.8466 3.89574C10.6883 4.05397 10.4737 4.14286 10.2499 4.14286H2.74993C2.52615 4.14286 2.31154 4.05397 2.15331 3.89574C1.99508 3.7375 1.90618 3.52289 1.90618 3.29911C1.90618 3.24019 1.85797 3.19197 1.79904 3.19197H0.995466C0.936537 3.19197 0.888323 3.24019 0.888323 3.29911C0.888323 4.32769 1.72136 5.16072 2.74993 5.16072V6.50001H0.767787C0.708859 6.50001 0.660645 6.54822 0.660645 6.60715V7.35715C0.660645 7.41608 0.708859 7.46429 0.767787 7.46429H2.74993V8.75001C2.74993 8.83706 2.75261 8.92411 2.75931 9.00849C1.84056 9.4009 1.19636 10.313 1.19636 11.375C1.19636 11.4339 1.24457 11.4822 1.3035 11.4822H2.0535C2.11243 11.4822 2.16064 11.4339 2.16064 11.375C2.16064 10.783 2.48073 10.2647 2.95886 9.98617C3.03826 10.2144 3.1401 10.4343 3.26288 10.6424C3.58832 11.1982 4.05306 11.663 4.60886 11.9884C4.99591 12.2147 5.42582 12.3741 5.8852 12.4505C5.94413 12.4505 5.99234 12.4022 5.99234 12.3433V6.12501C5.99234 6.06608 6.04056 6.01786 6.09948 6.01786H6.90306C6.96198 6.01786 7.0102 6.06608 7.0102 6.12501V12.342C7.0102 12.4009 7.05841 12.4491 7.11734 12.4491C7.57672 12.3728 8.00663 12.2134 8.39368 11.9871C9.16333 11.536 9.74801 10.8265 10.0437 9.98483C10.2859 10.1272 10.4867 10.3303 10.6263 10.5742C10.7658 10.818 10.8392 11.0941 10.8392 11.375C10.8392 11.4339 10.8874 11.4822 10.9464 11.4822H11.6964C11.7553 11.4822 11.8035 11.4339 11.8035 11.375C11.8035 10.313 11.1593 9.4009 10.2406 9.00849C10.2459 8.92277 10.2499 8.83706 10.2499 8.75001V7.46429H12.2321C12.291 7.46429 12.3392 7.41608 12.3392 7.35715V6.60715C12.3392 6.54822 12.291 6.50001 12.2321 6.50001Z" fill="#FF2F62"/>
</g>
<defs>
<clipPath id="clip0_204_6926">
<rect width="12" height="12" fill="white" transform="translate(0.5 0.5)"/>
</clipPath>
</defs>
</svg>
