<svg width="13" height="13" viewBox="0 0 13 13" fill="none" xmlns="http://www.w3.org/2000/svg">
<g id="MedicineBoxFilled">
<path id="Vector" d="M10.8824 3.36741C10.8544 3.28144 10.7999 3.20651 10.7268 3.15335C10.6537 3.10019 10.5656 3.07152 10.4752 3.07143H9.50021V1.57143C9.50021 1.33438 9.30869 1.14286 9.07164 1.14286H3.92878C3.69173 1.14286 3.50021 1.33438 3.50021 1.57143V3.07143H2.52521C2.43475 3.07131 2.34659 3.09991 2.27342 3.1531C2.20025 3.20629 2.14586 3.28133 2.11807 3.36741L1.14307 6.36608V11.4286C1.14307 11.6656 1.33458 11.8571 1.57164 11.8571H11.4288C11.6658 11.8571 11.8574 11.6656 11.8574 11.4286V6.36608L10.8824 3.36741ZM8.48235 8.05358C8.48235 8.1125 8.43414 8.16072 8.37521 8.16072H6.92878V9.60715C6.92878 9.66608 6.88057 9.71429 6.82164 9.71429H6.17878C6.11985 9.71429 6.07164 9.66608 6.07164 9.60715V8.16072H4.62521C4.56628 8.16072 4.51807 8.1125 4.51807 8.05358V7.41072C4.51807 7.35179 4.56628 7.30358 4.62521 7.30358H6.07164V5.85715C6.07164 5.79822 6.11985 5.75 6.17878 5.75H6.82164C6.88057 5.75 6.92878 5.79822 6.92878 5.85715V7.30358H8.37521C8.43414 7.30358 8.48235 7.35179 8.48235 7.41072V8.05358ZM8.53592 3.07143H4.4645V2.10715H8.53592V3.07143Z" fill="#4FD88A"/>
</g>
</svg>
