<svg width="95" height="100" viewBox="0 0 95 100" fill="none" xmlns="http://www.w3.org/2000/svg">
<path d="M71.9095 2.70679C86.6547 5.85567 93.5309 10.7992 93.5309 10.7992C93.5309 10.7992 98.606 47.1133 76.8202 76.196C65.0332 90.6783 51.6686 98.1264 47.4942 100C45.1867 99.5727 29.6132 91.4671 18.1747 76.196C-3.61108 47.1133 1.47052 10.7992 1.47052 10.7992C1.47052 10.7992 8.35335 5.85567 23.092 2.70679C40.0065 -0.902263 54.9949 -0.902263 71.9095 2.70679Z" fill="url(#paint0_linear_204_6788)"/>
<path d="M68.2332 32.2672L44.4226 56.0773C43.9763 56.5253 43.3699 56.7765 42.738 56.7765C42.1052 56.7765 41.4978 56.5253 41.0515 56.0773L26.7664 41.7916C25.8347 40.8605 25.8347 39.3514 26.7664 38.4202C27.697 37.489 29.2058 37.4891 30.1375 38.4202L42.738 51.0247L64.8621 28.8962C65.7937 27.965 67.3025 27.965 68.2341 28.8962C69.1648 29.8273 69.1648 31.3364 68.2332 32.2672Z" fill="white"/>
<defs>
<linearGradient id="paint0_linear_204_6788" x1="47.4999" y1="0" x2="47.4999" y2="100" gradientUnits="userSpaceOnUse">
<stop stop-color="#21D76E"/>
<stop offset="0.0959597" stop-color="#0EEA6B"/>
<stop offset="1" stop-color="#148B46"/>
</linearGradient>
</defs>
</svg>
