<svg width="73" height="73" viewBox="0 0 73 73" fill="none" xmlns="http://www.w3.org/2000/svg">
<g id="WarningTwoTone" clip-path="url(#clip0_806_8454)">
<path id="Vector" d="M34.6217 6.48382L34.6205 6.48583L1.19242 64.3422C0.356937 65.7958 1.40302 67.6 3.07151 67.6H69.9287C71.5969 67.6 72.6429 65.7964 71.8082 64.343L34.6217 6.48382ZM34.6217 6.48382C35.0344 5.75987 35.7627 5.4 36.5001 5.4C37.2353 5.4 37.9579 5.75835 38.3796 6.48583L34.6217 6.48382ZM38.3799 6.48626L71.8078 64.3422L38.3799 6.48626ZM8.84837 61.7008L8.5017 62.3009H9.19473H63.8054H64.4985L64.1518 61.7008L36.8464 14.4347L36.5001 13.8352L36.1537 14.4347L8.84837 61.7008Z" fill="#FF2F62" stroke="#25262F" stroke-width="0.8"/>
<path id="Vector_2" d="M9.19434 61.9008H63.805L36.4997 14.6348L9.19434 61.9008ZM40.3568 53.2142C40.3362 54.2236 39.9208 55.1846 39.1997 55.8912C38.4786 56.5977 37.5092 56.9934 36.4997 56.9934C35.4901 56.9934 34.5208 56.5977 33.7997 55.8912C33.0786 55.1846 32.6632 54.2236 32.6425 53.2142C32.6632 52.2049 33.0786 51.2438 33.7997 50.5373C34.5208 49.8307 35.4901 49.435 36.4997 49.435C37.5092 49.435 38.4786 49.8307 39.1997 50.5373C39.9208 51.2438 40.3362 52.2049 40.3568 53.2142ZM39.0711 28.7857V43.5714C39.0711 43.9249 38.7818 44.2142 38.4283 44.2142H34.5711C34.2175 44.2142 33.9283 43.9249 33.9283 43.5714V28.7857C33.9283 28.4321 34.2175 28.1428 34.5711 28.1428H38.4283C38.7818 28.1428 39.0711 28.4321 39.0711 28.7857Z" fill="#25262F"/>
<path id="Vector_3" d="M34.0552 55.6591C33.4068 55.0107 33.0426 54.1314 33.0426 53.2145C33.0426 52.2976 33.4068 51.4183 34.0552 50.7699C34.7035 50.1216 35.5828 49.7574 36.4997 49.7574C37.4166 49.7574 38.2959 50.1216 38.9443 50.7699C39.5926 51.4183 39.9569 52.2976 39.9569 53.2145C39.9569 54.1314 39.5926 55.0107 38.9443 55.6591C38.2959 56.3074 37.4166 56.6716 36.4997 56.6716C35.5828 56.6716 34.7035 56.3074 34.0552 55.6591ZM34.3283 43.5716V28.7859C34.3283 28.6533 34.4385 28.5431 34.5711 28.5431H38.4283C38.5609 28.5431 38.6711 28.6533 38.6711 28.7859V43.5716C38.6711 43.7043 38.5609 43.8145 38.4283 43.8145H34.5711C34.4385 43.8145 34.3283 43.7043 34.3283 43.5716Z" fill="#FF2F62" stroke="#25262F" stroke-width="0.8"/>
</g>
<defs>
<clipPath id="clip0_806_8454">
<rect width="72" height="72" fill="white" transform="translate(0.5 0.5)"/>
</clipPath>
</defs>
</svg>
