<svg xmlns="http://www.w3.org/2000/svg" width="16" height="16" viewBox="0 0 16 16" fill="none">
  <g clip-path="url(#clip0_555_3186)">
    <path d="M13.7143 0H4.14286C4.06429 0 4 0.0642857 4 0.142857V1.14286C4 1.22143 4.06429 1.28571 4.14286 1.28571H13V13.5714C13 13.65 13.0643 13.7143 13.1429 13.7143H14.1429C14.2214 13.7143 14.2857 13.65 14.2857 13.5714V0.571429C14.2857 0.255357 14.0304 0 13.7143 0ZM11.4286 2.28571H2.28572C1.96964 2.28571 1.71429 2.54107 1.71429 2.85714V12.3339C1.71429 12.4857 1.775 12.6304 1.88214 12.7375L4.97679 15.8321C5.01607 15.8714 5.06072 15.9036 5.10893 15.9304V15.9643H5.18393C5.24643 15.9875 5.3125 16 5.38036 16H11.4286C11.7446 16 12 15.7446 12 15.4286V2.85714C12 2.54107 11.7446 2.28571 11.4286 2.28571ZM5.10714 14.1464L3.56964 12.6071H5.10714V14.1464ZM10.7143 14.7143H6.25V12.1786C6.25 11.7839 5.93036 11.4643 5.53572 11.4643H3V3.57143H10.7143V14.7143Z" fill="#465B72"/>
  </g>
  <defs>
    <clipPath id="clip0_555_3186">
      <rect width="16" height="16" fill="white"/>
    </clipPath>
  </defs>
</svg>
