<svg width="18" height="19" viewBox="0 0 18 19" fill="none" xmlns="http://www.w3.org/2000/svg">
<g clip-path="url(#clip0_1988_1656)">
<path d="M8.51488 4.69838H9.48117C9.56957 4.69838 9.64189 4.77071 9.64189 4.8591V10.3897C9.64189 10.4419 9.61778 10.4901 9.57559 10.5203L6.25483 12.945C6.18251 12.9973 6.08207 12.9832 6.02983 12.9109L5.45528 12.1274C5.40104 12.0531 5.41711 11.9526 5.48943 11.9024L8.35416 9.8312V4.8591C8.35416 4.77071 8.42649 4.69838 8.51488 4.69838ZM4.09925 6.2091L0.949252 6.97852C0.848806 7.00262 0.750369 6.92629 0.750369 6.82383L0.734297 3.57941C0.734297 3.44481 0.888985 3.36847 0.993449 3.45285L4.15952 5.92584C4.18345 5.94435 4.20167 5.96924 4.21208 5.99764C4.22249 6.02605 4.22468 6.05681 4.21838 6.0864C4.21208 6.11599 4.19756 6.14321 4.17649 6.16491C4.15542 6.18662 4.12864 6.20193 4.09925 6.2091V6.2091ZM0.73028 12.258L1.86934 11.8662C1.90906 11.8526 1.95252 11.8551 1.99044 11.8731C2.02836 11.8911 2.05772 11.9233 2.07224 11.9627C2.11041 12.0651 2.15059 12.1656 2.19278 12.266C2.55037 13.1118 3.06264 13.8732 3.71756 14.5261C4.36519 15.1757 5.13272 15.6935 5.9776 16.0508C6.85284 16.4209 7.79365 16.6108 8.7439 16.6093C9.70416 16.6093 10.6343 16.4225 11.5102 16.0508C12.3551 15.6935 13.1226 15.1757 13.7702 14.5261C14.4231 13.8732 14.9354 13.1118 15.295 12.266C15.663 11.3903 15.8516 10.4496 15.8495 9.49972C15.8495 8.53945 15.6626 7.60731 15.291 6.73142C14.9334 5.88566 14.4211 5.12428 13.7662 4.47138C13.1186 3.82173 12.351 3.3039 11.5062 2.9466C10.6343 2.57495 9.70216 2.38812 8.74189 2.38812C7.78162 2.38812 6.85149 2.57495 5.97559 2.9466C5.13072 3.3039 4.36319 3.82173 3.71555 4.47138C3.51064 4.67829 3.31778 4.89325 3.14099 5.12026L1.93965 4.18008C3.52068 2.1591 5.98162 0.859322 8.74591 0.86133C13.5593 0.863339 17.4245 4.77271 17.3763 9.58812C17.328 14.3191 13.4809 18.1381 8.74189 18.1381C5.01532 18.1381 1.84122 15.7756 0.631842 12.4669C0.601708 12.3825 0.645905 12.2881 0.73028 12.258V12.258Z" fill="#676A84"/>
<path d="M8.53199 4.69824H9.49828C9.58668 4.69824 9.659 4.77056 9.659 4.85896V10.3895C9.659 10.4418 9.63489 10.49 9.5927 10.5201L6.27194 12.9449C6.19962 12.9971 6.09918 12.9831 6.04694 12.9107L5.47239 12.1273C5.41815 12.0529 5.43422 11.9525 5.50654 11.9023L8.37127 9.83106V4.85896C8.37127 4.77056 8.4436 4.69824 8.53199 4.69824Z" fill="#71748E"/>
</g>
<defs>
<clipPath id="clip0_1988_1656">
<rect width="18" height="18" fill="white" transform="translate(0 0.5)"/>
</clipPath>
</defs>
</svg>
