<svg xmlns="http://www.w3.org/2000/svg" width="94" height="100" viewBox="0 0 94 100" fill="none">
  <path d="M71.4097 2.70679C86.1549 5.85567 93.0312 10.7992 93.0312 10.7992C93.0312 10.7992 98.1062 47.1133 76.3204 76.196C64.5335 90.6783 51.1688 98.1264 46.9944 100C44.687 99.5727 29.1135 91.4671 17.675 76.196C-4.11084 47.1133 0.97076 10.7992 0.97076 10.7992C0.97076 10.7992 7.8536 5.85567 22.5922 2.70679C39.5068 -0.902263 54.4952 -0.902263 71.4097 2.70679Z" fill="url(#paint0_linear_204_6910)"/>
  <path d="M47.0003 19.0397C48.6647 19.0397 50.0076 20.4009 49.985 22.0652L49.6162 49.2087C49.5968 50.6396 48.4313 51.7893 47.0003 51.7893C45.5693 51.7893 44.4039 50.6396 44.3844 49.2087L44.0156 22.0652C43.993 20.4009 45.3359 19.0397 47.0003 19.0397ZM47.0003 64.9604C45.9027 64.9604 44.9609 64.5673 44.1748 63.7812C43.3887 62.9951 42.9956 62.0532 42.9956 60.9556C42.9956 59.8581 43.3887 58.9162 44.1748 58.1301C44.9609 57.344 45.9027 56.9509 47.0003 56.9509C48.0979 56.9509 49.0398 57.344 49.8259 58.1301C50.612 58.9162 51.005 59.8581 51.005 60.9556C51.005 61.6824 50.8196 62.3499 50.4488 62.958C50.0928 63.5661 49.6108 64.0556 49.0027 64.4264C48.4094 64.7824 47.7419 64.9604 47.0003 64.9604Z" fill="white"/>
  <defs>
    <linearGradient id="paint0_linear_204_6910" x1="47.0002" y1="-1.93075" x2="47.0002" y2="98.0693" gradientUnits="userSpaceOnUse">
      <stop stop-color="#DD2350"/>
      <stop offset="0.0812499" stop-color="#DF4268"/>
      <stop offset="1" stop-color="#851430"/>
    </linearGradient>
  </defs>
</svg>
