<svg xmlns="http://www.w3.org/2000/svg" width="94" height="100" viewBox="0 0 94 100" fill="none">
  <path d="M71.4095 2.70679C86.1547 5.85567 93.0309 10.7992 93.0309 10.7992C93.0309 10.7992 98.106 47.1133 76.3202 76.196C64.5332 90.6783 51.1686 98.1264 46.9942 100C44.6867 99.5727 29.1132 91.4671 17.6747 76.196C-4.11108 47.1133 0.970516 10.7992 0.970516 10.7992C0.970516 10.7992 7.85335 5.85567 22.592 2.70679C39.5065 -0.902263 54.4949 -0.902263 71.4095 2.70679Z" fill="url(#paint0_linear_204_6849)"/>
  <path d="M46.9991 19.0397C48.6635 19.0397 50.0064 20.4009 49.9838 22.0652L49.615 49.2087C49.5955 50.6396 48.4301 51.7893 46.9991 51.7893C45.5681 51.7893 44.4027 50.6396 44.3832 49.2087L44.0144 22.0652C43.9918 20.4009 45.3347 19.0397 46.9991 19.0397ZM46.9991 64.9604C45.9015 64.9604 44.9597 64.5673 44.1735 63.7812C43.3874 62.9951 42.9944 62.0532 42.9944 60.9556C42.9944 59.8581 43.3874 58.9162 44.1735 58.1301C44.9597 57.344 45.9015 56.9509 46.9991 56.9509C48.0967 56.9509 49.0385 57.344 49.8246 58.1301C50.6108 58.9162 51.0038 59.8581 51.0038 60.9556C51.0038 61.6824 50.8184 62.3499 50.4476 62.958C50.0916 63.5661 49.6096 64.0556 49.0015 64.4264C48.4082 64.7824 47.7407 64.9604 46.9991 64.9604Z" fill="white"/>
  <defs>
    <linearGradient id="paint0_linear_204_6849" x1="0.456299" y1="0" x2="100.2" y2="92.849" gradientUnits="userSpaceOnUse">
      <stop stop-color="#FE9400"/>
      <stop offset="1" stop-color="#8C3C12"/>
    </linearGradient>
  </defs>
</svg>
