<svg xmlns="http://www.w3.org/2000/svg" width="24" height="24" viewBox="0 0 24 24" fill="none">
  <path d="M12 22.002C17.524 22.002 22.002 17.524 22.002 12.001C22.002 6.47702 17.524 1.99902 12 1.99902C6.47599 1.99902 1.99799 6.47702 1.99799 12.001C1.99799 17.524 6.47599 22.002 12 22.002ZM12 20.502C9.74538 20.502 7.58312 19.6064 5.98887 18.0121C4.39462 16.4179 3.49899 14.2556 3.49899 12.001C3.49899 9.74642 4.39462 7.58416 5.98887 5.98991C7.58312 4.39566 9.74538 3.50002 12 3.50002C14.2547 3.50002 16.4171 4.39571 18.0115 5.99006C19.6058 7.5844 20.5015 9.74679 20.5015 12.0015C20.5015 14.2563 19.6058 16.4187 18.0115 18.013C16.4171 19.6073 14.2547 20.503 12 20.503V20.502Z" fill="#71748E"/>
</svg>
