<svg xmlns="http://www.w3.org/2000/svg" width="24" height="24" viewBox="0 0 24 24" fill="none">
  <path d="M12 1.99902C17.524 1.99902 22.002 6.47702 22.002 12.001C22.002 17.524 17.524 22.002 12 22.002C6.47599 22.002 1.99799 17.524 1.99799 12.001C1.99799 6.47702 6.47599 1.99902 12 1.99902ZM12 3.49902C10.8758 3.48683 9.76035 3.69772 8.7182 4.1195C7.67606 4.54127 6.72792 5.16554 5.92865 5.95619C5.12938 6.74684 4.49486 7.68816 4.06181 8.72566C3.62876 9.76317 3.40578 10.8763 3.40578 12.0005C3.40578 13.1248 3.62876 14.2379 4.06181 15.2754C4.49486 16.3129 5.12938 17.2542 5.92865 18.0449C6.72792 18.8355 7.67606 19.4598 8.7182 19.8816C9.76035 20.3033 10.8758 20.5142 12 20.502C14.232 20.4678 16.361 19.5571 17.9273 17.9666C19.4937 16.376 20.3716 14.2333 20.3716 12.001C20.3716 9.76874 19.4937 7.626 17.9273 6.03548C16.361 4.44496 14.232 3.53426 12 3.50002V3.49902ZM11.997 5.99902C13.5878 5.99902 15.1134 6.63095 16.2382 7.7558C17.3631 8.88064 17.995 10.4063 17.995 11.997C17.995 13.5878 17.3631 15.1134 16.2382 16.2382C15.1134 17.3631 13.5878 17.995 11.997 17.995C10.4062 17.995 8.8806 17.3631 7.75576 16.2382C6.63092 15.1134 5.99899 13.5878 5.99899 11.997C5.99899 10.4063 6.63092 8.88064 7.75576 7.7558C8.8806 6.63095 10.4062 5.99902 11.997 5.99902Z" fill="#F3B617"/>
</svg>
